HIERARCHY
ROOT Hips
{
	OFFSET 0.00000 0.00000 0.00000
	CHANNELS 6 Xposition Yposition Zposition Zrotation Yrotation Xrotation 
	JOINT LHipJoint
	{
		OFFSET 0 0 0
		CHANNELS 3 Zrotation Yrotation Xrotation
		JOINT LeftHip
		{
			OFFSET 1.35324 -1.81393 0.86676
			CHANNELS 3 Zrotation Yrotation Xrotation
			JOINT LeftKnee
			{
				OFFSET 2.44396 -6.71474 0.00000
				CHANNELS 3 Zrotation Yrotation Xrotation
				JOINT LeftAnkle
				{
					OFFSET 2.78389 -7.64869 0.00000
					CHANNELS 3 Zrotation Yrotation Xrotation
					JOINT LeftToe
					{
						OFFSET 0.15837 -0.43512 1.94704
						CHANNELS 3 Zrotation Yrotation Xrotation
						End Site
						{
							OFFSET 0.00000 -0.00000 1.00735
						}
					}
				}
			}
		}
	}
	JOINT RHipJoint
	{
		OFFSET 0 0 0
		CHANNELS 3 Zrotation Yrotation Xrotation
		JOINT RightHip
		{
			OFFSET -1.14956 -1.81393 0.86676
			CHANNELS 3 Zrotation Yrotation Xrotation
			JOINT RightKnee
			{
				OFFSET -2.55632 -7.02343 0.00000
				CHANNELS 3 Zrotation Yrotation Xrotation
				JOINT RightAnkle
				{
					OFFSET -2.63038 -7.22691 0.00000
					CHANNELS 3 Zrotation Yrotation Xrotation
					JOINT RightToe
					{
						OFFSET -0.22277 -0.61205 2.06087
						CHANNELS 3 Zrotation Yrotation Xrotation
						End Site
						{
							OFFSET -0.00000 -0.00000 1.07867
						}
					}
				}
			}
		}
	}
	JOINT lowerback
	{
		OFFSET 0 0 0
		CHANNELS 3 Zrotation Yrotation Xrotation
		JOINT Chest
		{
			OFFSET -0.05682 2.18266 -0.21665
			CHANNELS 3 Zrotation Yrotation Xrotation
			JOINT Chest2
			{
				OFFSET 0.08791 2.18267 0.00700
				CHANNELS 3 Zrotation Yrotation Xrotation
				JOINT lowerneck
				{
					OFFSET 0 0 0
					CHANNELS 3 Zrotation Yrotation Xrotation
					JOINT Neck
					{
						OFFSET -0.14851 1.58495 0.25390
						CHANNELS 3 Zrotation Yrotation Xrotation
						JOINT Head
						{
							OFFSET 0.13566 1.62237 -0.28476
							CHANNELS 3 Zrotation Yrotation Xrotation
							End Site
							{
								OFFSET 0.05601 1.65818 -0.12921
							}
						}
					}
				}
				JOINT LeftCollar
				{
					OFFSET 0 0 0
					CHANNELS 3 Zrotation Yrotation Xrotation
					JOINT LeftShoulder
					{
						OFFSET 3.23337 0.97114 -0.51072
CHANNELS 3 Zrotation Xrotation Yrotation
						JOINT LeftElbow
						{
OFFSET 0 -5.199640 -0.000510
CHANNELS 3 Zrotation Xrotation Yrotation
							JOINT LeftWrist
							{
OFFSET 0 -3.321890 0.000000
CHANNELS 3 Zrotation Xrotation Yrotation
								JOINT lhand
								{
									OFFSET 0 0 0
CHANNELS 3 Zrotation Xrotation Yrotation
									JOINT LFingers
									{
OFFSET 0 -0.645620 0.000000
CHANNELS 3 Zrotation Xrotation Yrotation
										End Site
										{
OFFSET 0 -0.520510 0.000000
										}
									}
								}
								JOINT LThumb
								{
OFFSET 0 0.000000 0.000000
CHANNELS 3 Zrotation Xrotation Yrotation
									End Site
									{
OFFSET 0 -0.528460 0.528460
									}
								}
							}
						}
					}
				}
				JOINT RightCollar
				{
					OFFSET 0 0 0
					CHANNELS 3 Zrotation Yrotation Xrotation
					JOINT RightShoulder
					{
						OFFSET -2.95712 1.24697 -0.52388
CHANNELS 3 Zrotation Xrotation Yrotation
						JOINT RightElbow
						{
OFFSET 0 -5.659500 -0.000000
CHANNELS 3 Zrotation Xrotation Yrotation
							JOINT RightWrist
							{
OFFSET 0 -3.376040 -0.000000
CHANNELS 3 Zrotation Xrotation Yrotation
								JOINT rhand
								{
									OFFSET 0 0 0
CHANNELS 3 Zrotation Xrotation Yrotation
									JOINT RFingers
									{
OFFSET 0 -0.824700 -0.000000
CHANNELS 3 Zrotation Xrotation Yrotation
										End Site
										{
OFFSET 0 -0.664900 -0.000000
										}
									}
								}
								JOINT RThumb
								{
OFFSET 0 0.000000 0.000000
CHANNELS 3 Zrotation Xrotation Yrotation
									End Site
									{
OFFSET 0 -0.675050 0.675050
									}
								}
							}
						}
					}
				}
			}
		}
	}
}
MOTION
Frames: 10
Frame Time: 1
0 16.63739 0 1798.267 725.057 -88207.33 0 0 0 -380.2617 -16.7759 13.4174 0.8934 6.0243 16.855 -719.2132 4.5867 -1099.034 1.4875 -7.7052 -21.8222 0 0 0 23.1382 3.4534 17.5005 -0.036 -1.2241 3.3656 -359.9978 -9.635 -13.6893 -1.6686 8.1387 -23.1362 -0.8051 0.2459 -7.099 0.037 0.3832 -2.6247 0.5209 0.1955 1.2675 -18.8189 -11.3332 2.1362 12.6209 -18.6781 28.7714 725.7101 -9.5995 12.1762 -0 0 0 735.3914 -46.5691 -2165.709 132.9001 -51.7567 96.1231 -340.5386 -1479.321 -22.3373 0 0 0 -7.125 0 0 -1089.848 53.2594 2882.016 -0 0 0 -749.2064 -45.7614 -2893.571 -144.5749 -45.1133 -104.8863 347.3312 -767.2141 -7.3643 0 0 0 7.125 0 -0 3250.301 22.469 -2154.328
0 16.78605 0 1800.06 722.1944 -88200.89 0 0 0 -382.0339 -19.089 9.2515 0.608 4.9907 13.8822 -719.6682 9.43 -1098.091 1.5917 -7.9582 -22.5872 0 0 0 19.515 7.9258 14.4873 0 -0 0 -360.0372 -8.7839 -13.1893 -1.0025 6.3714 -17.8659 -3.6065 -0.7493 -5.6806 0.2106 -0.7849 -1.0244 2.1827 -0.4163 2.1805 -23.4477 -9.8706 9.3779 18.157 -17.5297 16.9295 728.9066 -9.4172 7.3462 0 -0 0 723.0472 -26.8351 -2206.911 156.8463 -34.2565 112.7754 -379.0754 -1461.606 -37.0365 0 0 0 -7.125 0 0 -1137.932 57.5893 2902.768 0 -0 0 -724.8655 -23.0794 -2850.053 -160.8465 -29.609 -114.8935 382.6484 -709.8507 -11.9974 0 0 0 7.125 0 -0 3272.519 17.3891 -2134.086
0 16.74969 0 1800.301 721.9185 -88202 0 0 0 -382.5865 -17.1822 10.1103 0.6081 4.9912 13.8836 -719.5429 8.0462 -1098.166 1.3976 -7.4788 -21.1417 0 0 0 19.3081 7.7087 15.9934 0 0 -0 -360.0544 -8.9722 -13.7328 -0.9012 6.0499 -16.9292 -3.9375 -0.5111 -5.9364 0.2672 -0.4179 -0.0047 2.4513 -0.2746 3.3571 -23.7824 -8.4304 10.8362 20.1748 -15.9992 15.8824 730.0016 -8.7162 6.5785 0 0 0 721.6234 -24.7063 -2209.003 156.2169 -34.9341 112.418 -381.9915 -1450.595 -38.6351 0 0 0 -7.125 0 0 -1142.267 57.8702 2905.92 0 0 0 -724.8758 -21.1257 -2843.891 -158.3255 -32.6072 -113.5904 393.2166 -696.6289 -10.3495 0 0 0 7.125 0 -0 3277.769 16.7611 -2126.206
0 16.71925 0 1800.753 724.0171 -88203.55 0 0 0 -383.4675 -17.7758 12.0715 0.5953 4.9395 13.736 -719.5479 7.6003 -1097.698 1.5326 -7.8159 -22.1564 0 0 0 18.8369 5.0395 17.3301 0 0 0 -360.1214 -8.5932 -14.3292 -0.8353 5.8303 -16.2928 -3.6558 -0.3074 -5.6824 0.086 -0.1477 1.1288 2.1284 -0.1681 4.3701 -22.7312 -7.348 14.9277 19.7328 -14.472 11.2274 729.9926 -8.0903 3.9892 0 0 0 796.8986 -44.3524 -2176.448 153.5412 -37.6582 110.8335 -392.9468 -1451.037 -40.8979 0 0 0 -7.125 0 0 -1153.513 56.479 2911.828 0 0 0 -825.727 -35.5699 -2861.229 -154.9463 -36.2589 -111.6783 409.835 -682.8896 -4.8498 0 0 0 7.125 0 -0 3282.536 11.229 -2107.767
0 16.66774 0 1800.311 722.4806 -88204.13 0 0 0 -382.7309 -15.7159 10.533 0.8169 5.7674 16.1111 -719.3498 6.1526 -1098.7 1.4824 -7.6926 -21.7842 0 0 0 19.9893 7.6024 14.6006 -0.1427 -2.4349 6.7092 -360.3441 -8.4411 -17.214 -1.0111 6.3978 -17.9432 -4.006 -0.7354 -4.7025 0.4816 -0.7425 1.7333 2.6847 -0.49 4.495 -21.6865 -7.4768 17.3124 20.8107 -15.0047 10.8715 730.3368 -8.4495 3.6123 -0 -0 0 833.3061 -33.2094 -2163.427 148.8946 -41.8222 107.86 -418.2978 -1524.49 -37.736 0 0 0 -7.125 0 0 -1164.825 50.2412 2907.567 -0 -0 0 -849.9097 -32.041 -2869.009 -151.4044 -39.6588 -109.4983 416.3766 -716.7707 -8.8363 0 0 0 7.125 0 -0 3282.63 -3.2206 -2090.429
0 16.66453 0 1800.835 723.9965 -88203.94 0 0 0 -382.7006 -15.9383 10.4125 0.7897 5.6727 15.8377 -719.3881 5.2763 -1097.637 1.6875 -8.1824 -23.2695 0 0 0 19.7563 6.4472 13.2764 -0.236 -3.1268 8.6319 -360.4917 -8.0341 -18.5436 -0.8418 5.8522 -16.3563 -4.4589 -1.1081 -4.673 0.5834 -1.1982 2.697 2.9973 -0.771 5.5385 -22.0975 -7.391 13.8715 19.6954 -14.3611 12.3854 729.8317 -7.9567 4.4263 -0 0 0 841.4095 -28.2781 -2175.832 148.3141 -42.2953 107.4711 -413.9366 -1496.923 -33.7594 0 0 0 -7.125 0 0 -1156.486 49.0939 2896.703 -0 0 0 -848.5134 -30.8273 -2863.397 -146.3533 -43.8213 -106.1321 410.8192 -728.4488 -8.9184 0 0 0 7.125 0 -0 3281.903 6.0106 -2102.685
0 16.61183 0 1800.837 722.9969 -88203.5 0 0 0 -381.8935 -13.3653 5.4446 1.2466 7.0791 19.95 -719.1607 1.6507 -1097.978 1.08 -6.6055 -18.5517 0 0 0 19.2201 8.884 9.8051 -0.5784 -4.8699 13.5377 -360.6295 -7.7019 -19.723 -1.1984 6.9459 -19.5551 -1.939 -0.4328 -3.0586 1.4264 -0.5371 2.3403 2.526 -0.3461 4.1625 -20.6507 -8.0486 14.7886 21.5579 -14.6882 7.0451 730.2773 -8.1001 2.7788 0 -0 0 787.1065 -41.237 -2182.038 150.3828 -40.5631 108.8401 -404.296 -1484.67 -40.9071 0 0 0 -7.125 0 0 -1161.28 53.9402 2913.582 0 -0 0 -802.5195 -35.5086 -2867.059 -152.4865 -38.6645 -110.1817 410.3509 -710.3688 -7.8695 0 0 0 7.125 0 -0 3282.014 7.6048 -2104.342
0 16.84524 0 1799.37 724.3276 -88198.77 0 0 0 -380.28 -18.7647 4.9058 0.7188 5.4178 15.104 -719.5985 8.2527 -1097.718 1.2143 -6.9901 -19.6862 0 0 0 20.3733 7.4919 10.8015 0 -0 0 -359.8321 -10.3603 -11.6754 -1.4895 7.7101 -21.8369 -1.5892 -0.031 -0.2822 1.6925 -0.0583 3.9197 2.6365 -0.1173 4.2012 -18.3417 -11.994 -10.3995 22.1262 -17.6481 14.6797 728.3387 -7.7274 10.1843 0 0 0 733.8809 -1.8835 -2182.899 40.3603 -48.2819 18.7077 -358.4051 -1450.211 -22.7828 0 0 0 -7.125 0 0 -1107.193 50.6682 2884.058 0 0 0 -741.0302 5.5629 -2841.743 -57.2729 -55.5383 -32.082 359.2981 -722.2183 -14.9969 0 0 0 7.125 0 -0 3258.019 15.439 -2146.746
0 16.30105 0 1798.559 733.9688 -88204.29 0 0 0 -377.2564 -14.2182 -1.6993 3.0066 10.7057 31.2938 -718.8684 -9.0549 -1099.111 1.064 -6.5579 -18.4122 0 0 0 22.1919 -1.3905 1.4495 -1.8883 -8.6294 24.6428 -361.3731 -8.131 -26.4216 -0.934 6.1562 -17.2382 -0.9768 0.188 1.4698 0.4532 0.2389 0.4296 1.007 0.1198 -0.3899 -15.9536 -7.1899 -6.9307 17.3002 -10.9682 17.5381 727.4563 -4.9473 8.4097 0 -0 0 745.4577 -24.1219 -2219.535 157.8463 -33.1504 113.3303 -394.7307 -1505.667 -18.7957 0 0 0 -7.125 0 0 -1132.093 41.9678 2874.237 0 -0 0 -742.3661 -9.3951 -2834.203 -159.6393 -31.0745 -114.2836 392.4251 -752.6091 -15.0224 0 0 0 7.125 0 -0 3276.315 12.7511 -2124.174
0 16.37181 0 1800.411 756.2474 -88202.68 0 0 0 -378.7793 -24.6691 -4.5778 2.9982 10.6921 31.2485 -720.509 -20.2377 -1089.626 0.2799 -3.4026 -9.4017 0 0 0 22.295 -9.5569 -0.7383 -1.8955 -8.6448 24.6905 -360.9057 -17.6157 -31.6165 -0.3452 3.7754 -10.4456 -1.8486 1.7788 -0.2418 0.0128 2.3934 1.2831 1.0806 1.176 1.3737 -15.8482 -8.261 -11.7827 14.7002 -11.4213 19.6315 726.3432 -5.0955 9.9654 0 -0 0 747.1526 -25.2657 -2218.697 157.7212 -33.2907 113.2618 -396.7301 -1506.923 -19.0966 0 0 0 -7.125 0 0 -1133.269 41.8299 2873.67 0 -0 0 -741.5795 -6.6064 -2832.517 -159.6509 -31.0607 -114.2896 391.0149 -752.5259 -15.6203 0 0 0 7.125 0 -0 3275.611 12.5878 -2125.19
